<mxfile host="drawio-plugin" modified="2021-11-03T14:47:16.048Z" agent="5.0 (Windows NT 6.2; Win64; x64) AppleWebKit/537.36 (KHTML, like Gecko) Chrome/89.0.4389.114 Safari/537.36" etag="pOtGPgflDjNu9Yuo63I-" version="14.7.4" type="embed"><diagram id="3CeAWuQY9inEd3xoAb9d" name="Page-1"><mxGraphModel dx="1716" dy="1023" grid="1" gridSize="10" guides="1" tooltips="1" connect="1" arrows="1" fold="1" page="1" pageScale="1" pageWidth="827" pageHeight="1169" math="0" shadow="0"><root><mxCell id="0"/><mxCell id="1" parent="0"/><mxCell id="qZR0Ks7EqIsyawfw2a6l-1" value="" style="rounded=0;whiteSpace=wrap;html=1;" parent="1" vertex="1"><mxGeometry x="40" y="60" width="350" height="210" as="geometry"/></mxCell><mxCell id="qZR0Ks7EqIsyawfw2a6l-2" value="Auth Page" style="text;html=1;strokeColor=none;fillColor=none;align=center;verticalAlign=middle;whiteSpace=wrap;rounded=0;fontStyle=1;fontSize=19;" parent="1" vertex="1"><mxGeometry x="127.5" y="20" width="175" height="30" as="geometry"/></mxCell><mxCell id="qZR0Ks7EqIsyawfw2a6l-3" value="login" style="rounded=1;whiteSpace=wrap;html=1;fontSize=19;fillColor=#f5f5f5;strokeColor=#666666;fontColor=#333333;" parent="1" vertex="1"><mxGeometry x="155" y="90" width="120" height="20" as="geometry"/></mxCell><mxCell id="qZR0Ks7EqIsyawfw2a6l-4" value="password" style="rounded=1;whiteSpace=wrap;html=1;fontSize=19;fillColor=#f5f5f5;strokeColor=#666666;fontColor=#333333;" parent="1" vertex="1"><mxGeometry x="155" y="130" width="120" height="20" as="geometry"/></mxCell><mxCell id="qZR0Ks7EqIsyawfw2a6l-42" style="edgeStyle=elbowEdgeStyle;rounded=0;orthogonalLoop=1;jettySize=auto;elbow=vertical;html=1;entryX=0;entryY=0.75;entryDx=0;entryDy=0;fontSize=19;" parent="1" source="qZR0Ks7EqIsyawfw2a6l-5" target="qZR0Ks7EqIsyawfw2a6l-8" edge="1"><mxGeometry relative="1" as="geometry"/></mxCell><mxCell id="qZR0Ks7EqIsyawfw2a6l-5" value="Submit" style="rounded=1;whiteSpace=wrap;html=1;fontSize=19;fillColor=#d5e8d4;strokeColor=#82b366;" parent="1" vertex="1"><mxGeometry x="167.5" y="200" width="95" height="30" as="geometry"/></mxCell><mxCell id="qZR0Ks7EqIsyawfw2a6l-8" value="" style="rounded=0;whiteSpace=wrap;html=1;" parent="1" vertex="1"><mxGeometry x="500" y="60" width="350" height="210" as="geometry"/></mxCell><mxCell id="qZR0Ks7EqIsyawfw2a6l-9" value="Certificate List Page" style="text;html=1;strokeColor=none;fillColor=none;align=center;verticalAlign=middle;whiteSpace=wrap;rounded=0;fontStyle=1;fontSize=19;" parent="1" vertex="1"><mxGeometry x="543.75" y="20" width="262.5" height="30" as="geometry"/></mxCell><mxCell id="qZR0Ks7EqIsyawfw2a6l-18" value="" style="rounded=1;whiteSpace=wrap;html=1;fontSize=19;" parent="1" vertex="1"><mxGeometry x="507.5" y="80" width="332.5" height="30" as="geometry"/></mxCell><mxCell id="qZR0Ks7EqIsyawfw2a6l-19" value="id" style="text;html=1;strokeColor=none;fillColor=none;align=center;verticalAlign=middle;whiteSpace=wrap;rounded=0;fontSize=19;" parent="1" vertex="1"><mxGeometry x="507.5" y="80" width="60" height="30" as="geometry"/></mxCell><mxCell id="qZR0Ks7EqIsyawfw2a6l-21" value="student name" style="text;html=1;strokeColor=none;fillColor=none;align=center;verticalAlign=middle;whiteSpace=wrap;rounded=0;fontSize=19;" parent="1" vertex="1"><mxGeometry x="555.75" y="80" width="118" height="30" as="geometry"/></mxCell><mxCell id="qZR0Ks7EqIsyawfw2a6l-22" value="" style="ellipse;whiteSpace=wrap;html=1;aspect=fixed;fontSize=19;fillColor=#f8cecc;strokeColor=#b85450;" parent="1" vertex="1"><mxGeometry x="800" y="80" width="30" height="30" as="geometry"/></mxCell><mxCell id="qZR0Ks7EqIsyawfw2a6l-41" style="edgeStyle=elbowEdgeStyle;rounded=0;orthogonalLoop=1;jettySize=auto;elbow=vertical;html=1;entryX=0.913;entryY=-0.006;entryDx=0;entryDy=0;entryPerimeter=0;fontSize=19;" parent="1" source="qZR0Ks7EqIsyawfw2a6l-25" target="qZR0Ks7EqIsyawfw2a6l-29" edge="1"><mxGeometry relative="1" as="geometry"/></mxCell><mxCell id="qZR0Ks7EqIsyawfw2a6l-25" value="" style="rounded=1;whiteSpace=wrap;html=1;fontSize=19;" parent="1" vertex="1"><mxGeometry x="507.5" y="120" width="332.5" height="30" as="geometry"/></mxCell><mxCell id="qZR0Ks7EqIsyawfw2a6l-26" value="id" style="text;html=1;strokeColor=none;fillColor=none;align=center;verticalAlign=middle;whiteSpace=wrap;rounded=0;fontSize=19;" parent="1" vertex="1"><mxGeometry x="507.5" y="120" width="60" height="30" as="geometry"/></mxCell><mxCell id="qZR0Ks7EqIsyawfw2a6l-27" value="student name" style="text;html=1;strokeColor=none;fillColor=none;align=center;verticalAlign=middle;whiteSpace=wrap;rounded=0;fontSize=19;" parent="1" vertex="1"><mxGeometry x="555.75" y="120" width="118" height="30" as="geometry"/></mxCell><mxCell id="qZR0Ks7EqIsyawfw2a6l-28" value="" style="ellipse;whiteSpace=wrap;html=1;aspect=fixed;fontSize=19;fillColor=#d5e8d4;strokeColor=#82b366;" parent="1" vertex="1"><mxGeometry x="800" y="120" width="30" height="30" as="geometry"/></mxCell><mxCell id="qZR0Ks7EqIsyawfw2a6l-29" value="" style="rounded=0;whiteSpace=wrap;html=1;" parent="1" vertex="1"><mxGeometry x="500" y="370" width="350" height="210" as="geometry"/></mxCell><mxCell id="qZR0Ks7EqIsyawfw2a6l-33" value="Detail Certificate Page" style="text;html=1;strokeColor=none;fillColor=none;align=center;verticalAlign=middle;whiteSpace=wrap;rounded=0;fontStyle=1;fontSize=19;" parent="1" vertex="1"><mxGeometry x="543.75" y="330" width="262.5" height="30" as="geometry"/></mxCell><mxCell id="qZR0Ks7EqIsyawfw2a6l-43" value="organisation" style="text;html=1;strokeColor=none;fillColor=none;align=center;verticalAlign=middle;whiteSpace=wrap;rounded=0;fontSize=19;" parent="1" vertex="1"><mxGeometry x="673.75" y="80" width="118" height="30" as="geometry"/></mxCell><mxCell id="qZR0Ks7EqIsyawfw2a6l-44" value="organisation" style="text;html=1;strokeColor=none;fillColor=none;align=center;verticalAlign=middle;whiteSpace=wrap;rounded=0;fontSize=19;" parent="1" vertex="1"><mxGeometry x="673.75" y="120" width="118" height="30" as="geometry"/></mxCell><mxCell id="qZR0Ks7EqIsyawfw2a6l-46" value="student name" style="text;html=1;strokeColor=none;fillColor=none;align=center;verticalAlign=middle;whiteSpace=wrap;rounded=0;fontSize=19;" parent="1" vertex="1"><mxGeometry x="520" y="380" width="130" height="30" as="geometry"/></mxCell><mxCell id="qZR0Ks7EqIsyawfw2a6l-47" value="" style="ellipse;whiteSpace=wrap;html=1;aspect=fixed;fontSize=19;fillColor=#f8cecc;strokeColor=#b85450;" parent="1" vertex="1"><mxGeometry x="797" y="380" width="30" height="30" as="geometry"/></mxCell><mxCell id="qZR0Ks7EqIsyawfw2a6l-49" value="description" style="text;html=1;strokeColor=#d79b00;fillColor=#ffe6cc;align=center;verticalAlign=middle;whiteSpace=wrap;rounded=0;fontSize=19;" parent="1" vertex="1"><mxGeometry x="520" y="420" width="320" height="90" as="geometry"/></mxCell><mxCell id="qZR0Ks7EqIsyawfw2a6l-50" value="give a certificate" style="rounded=1;whiteSpace=wrap;html=1;fontSize=19;fillColor=#dae8fc;strokeColor=#6c8ebf;" parent="1" vertex="1"><mxGeometry x="520" y="520" width="150" height="40" as="geometry"/></mxCell></root></mxGraphModel></diagram></mxfile>